<?xml version="1.0" encoding="UTF-8"?>
<!DOCTYPE svg PUBLIC "-//W3C//DTD SVG 1.1//EN" "http://www.w3.org/Graphics/SVG/1.1/DTD/svg11.dtd">
<!-- Creator: CorelDRAW (Evaluation Version) -->
<svg xmlns="http://www.w3.org/2000/svg" xml:space="preserve" width="1.2in" height="1.2in" version="1.1" style="shape-rendering:geometricPrecision; text-rendering:geometricPrecision; image-rendering:optimizeQuality; fill-rule:evenodd; clip-rule:evenodd"
viewBox="0 0 1200 1200"
 xmlns:xlink="http://www.w3.org/1999/xlink"
 xmlns:xodm="http://www.corel.com/coreldraw/odm/2003">
 <defs>
  <style type="text/css">
   <![CDATA[
    .str0 {stroke:#373435;stroke-width:6.94;stroke-miterlimit:2.61313}
    .fil2 {fill:none}
    .fil0 {fill:#FEFEFE}
    .fil1 {fill:#334690;fill-rule:nonzero}
   ]]>
  </style>
   <clipPath id="id0">
    <path d="M200 75.44l800 0c55,0 100,45 100,100l0 849.12c0,55 -45,100 -100,100l-800 0c-55,0 -100,-45 -100,-100l0 -849.12c0,-55 45,-100 100,-100z"/>
   </clipPath>
 </defs>
 <g id="Layer_x0020_1">
  <metadata id="CorelCorpID_0Corel-Layer"/>
  <path class="fil0" d="M200 75.44l800 0c55,0 100,45 100,100l0 849.12c0,55 -45,100 -100,100l-800 0c-55,0 -100,-45 -100,-100l0 -849.12c0,-55 45,-100 100,-100z"/>
  <g style="clip-path:url(#id0)">
   <g id="_2483974588560">
    <rect class="fil0 str0" x="31.92" y="14.43" width="1256.79" height="1189.66"/>
    <rect class="fil0" x="-81.84" y="-20.19" width="1339.47" height="1228.85"/>
    <g>
     <path class="fil1" d="M974.82 310.97c-1.32,-7.25 -5.41,-11.31 -12.06,-13.2 -9.43,-2.7 -21.6,1.91 -27.13,10.15 -4.29,6.39 -7.51,13.28 -9.44,20.72 -1.55,6.03 -3.02,12.11 -4.4,18.17 -2.02,8.92 -3.87,17.88 -5.96,26.78 -0.54,2.3 -0.75,4.89 -3.17,6.89 -3.2,-3.47 -6.3,-6.78 -9.35,-10.17 -3.23,-3.57 -5.25,-7.75 -6.25,-12.48 -3.12,-14.79 -4.24,-29.57 -1.02,-44.55 1.17,-5.37 1.83,-10.94 2.03,-16.45 0.26,-6.5 -4.01,-10.34 -10.46,-9.97 -4.56,0.26 -9.12,0.57 -13.65,1.18 -5.28,0.69 -10.24,2.33 -14.55,5.62 -3.73,2.87 -8.02,4.22 -12.75,4.35 -6.1,0.18 -12.05,0.63 -17.63,3.81 -4.3,2.43 -9.33,2.67 -14.15,1.18 -2.9,-0.88 -5.75,-1.99 -8.49,-3.28 -10.93,-5.08 -21.9,-10.08 -33.67,-12.94 -7.06,-1.72 -13.15,0.24 -18.04,5.65 -1.21,1.33 -2.22,2.83 -3.35,4.24 -0.76,0.98 -1.48,2.04 -2.36,2.89 -2.1,1.94 -3.73,2.11 -5.88,0.22 -1.75,-1.52 -3.17,-3.46 -4.74,-5.21 -1.48,-1.66 -2.79,-3.47 -4.43,-4.94 -2.15,-1.91 -4.69,-2.24 -7.35,-0.95 -2.53,1.22 -3.64,3.26 -3.68,6 -0.02,2.06 0.16,4.19 -0.1,6.22 -0.31,2.56 -0.15,5.79 -3.06,6.78 -2.82,0.95 -4.89,-1.29 -6.61,-3.35 -4.46,-5.3 -8.87,-10.65 -13.33,-15.96 -1.61,-1.91 -3.26,-3.78 -4.96,-5.62 -3.91,-4.2 -8.74,-5.01 -14.08,-3.5 -1.85,0.52 -3.7,1.18 -5.46,1.93 -6.67,2.83 -13.51,4.88 -20.64,6.18 -8.63,1.57 -11.14,-0.41 -11.33,-9.19 -0.1,-4.7 -0.19,-9.43 -0.75,-14.11 -0.32,-2.82 -1.24,-5.69 -2.41,-8.3 -1.46,-3.28 -3.77,-4.15 -7.15,-2.85 -2.55,0.98 -4.96,2.4 -7.35,3.78 -2.63,1.53 -5.09,3.39 -7.75,4.84 -3.09,1.69 -6.27,2.34 -9.97,1.69 -7.75,-1.41 -14.04,-4.85 -18.69,-11.27 -3.44,-4.75 -8.12,-6.98 -14.04,-6.41 -0.42,0.04 -0.83,0.05 -1.25,0.07 -4.77,0.23 -7.3,-1.51 -8.57,-6.05 -0.44,-1.59 -0.72,-3.24 -1.01,-4.87 -0.85,-4.77 -1.47,-9.6 -2.5,-14.33 -2.17,-9.95 -9.53,-15.76 -19.68,-15.6 -7.32,0.12 -13.86,2.63 -19.28,7.57 -3.19,2.87 -6.06,6.11 -9.11,9.13 -1.13,1.14 -2.34,2.17 -3.87,3.56 -2.81,-3.18 -5.32,-5.93 -7.74,-8.74 -5.25,-6.11 -10.34,-12.32 -15.72,-18.3 -4.7,-5.22 -10.71,-7.73 -17.81,-7.46 -2.76,0.11 -5.54,0.17 -8.31,0.06 -8.55,-0.35 -15.55,-3.4 -20.11,-11.14 -2.8,-4.76 -6.7,-8.52 -11.61,-11.06 -4.17,-2.15 -8.5,-4.04 -12.89,-5.74 -6.03,-2.35 -10.17,-6.35 -12.67,-12.38 -2.31,-5.63 -5.02,-11.11 -7.69,-16.57 -0.72,-1.46 -1.78,-2.86 -2.99,-3.93 -2.44,-2.14 -4.14,-1.98 -6.61,0.14 -1.37,1.18 -2.56,2.65 -4.12,3.45 -8.99,4.61 -18.12,8.28 -28.59,5.04 -5.02,-1.54 -10.24,-2.39 -15.4,-3.41 -5.88,-1.18 -9.43,-0.06 -11.65,4.65 -4.42,9.33 -10.18,18.2 -11.31,28.85 -0.11,0.96 -0.3,1.92 -0.57,2.86 -0.87,2.98 -2.33,3.73 -5.31,2.53 -1,-0.39 -2.09,-0.93 -2.78,-1.72 -3.87,-4.33 -8.17,-8.33 -10.6,-13.79 -1.16,-2.66 -3.14,-4.54 -5.59,-5.94 -1.82,-1.03 -3.7,-1.91 -5.57,-2.77 -2.57,-1.2 -4.64,-2.87 -6.51,-5.03 -3.06,-3.58 -6.3,-7.03 -9.74,-10.22 -1.79,-1.64 -4.04,-3.06 -6.33,-3.77 -4.34,-1.38 -8.81,-2.33 -13.31,-3.17 -2.75,-0.54 -5.66,-0.43 -7.94,1.45 -3.73,3.07 -7.39,6.28 -10.91,9.58 -1.34,1.25 -2.17,2.93 -1.29,4.89 0.91,2.04 2.57,2.87 4.7,2.67 2.76,-0.24 5.5,-0.59 8.24,-0.93 3.16,-0.41 6.09,-0.37 7.74,3.1 0.35,0.69 1.23,1.1 1.8,1.71 1.67,1.82 3.35,3.62 4.95,5.5 0.9,1.06 1.49,2.41 2.49,3.29 2.05,1.83 3.5,3.87 3.5,7.1 5.17,0.09 7.11,4.15 9.54,7.63 0.33,0.45 0.68,0.89 0.99,1.33 1.94,2.76 2.07,2.9 -0.11,5.32 -3.99,4.4 -7.93,8.91 -12.3,12.92 -6.35,5.8 -10.76,12.51 -12.62,21 -1.3,5.94 -3,11.81 -4.93,17.59 -1.96,5.93 -1.57,10.89 3.17,15.55 4.41,4.34 4.13,9.34 0.24,14.22 -2.58,3.24 -4.97,6.64 -7.61,9.85 -1.56,1.9 -3.27,3.71 -5.11,5.31 -2.44,2.08 -4.24,4.46 -4.46,7.69 -0.18,2.48 -0.11,4.97 -0.12,7.46 -0.02,1.63 0,3.27 0,5.26 -2.89,0.31 -5.61,0.58 -8.31,0.91 -4.39,0.46 -8.24,2.15 -10.15,6.26 -2.82,6.06 -4.91,12.55 -4.26,19.28 1.7,17.52 3.54,35.03 5.83,52.48 2.32,17.58 5.19,35.09 7.93,52.61 4.72,29.96 9.43,59.94 14.33,89.89 2.34,14.37 7.39,27.69 15.36,40.05 12.96,20.07 26.96,39.39 42.46,57.52 31.89,37.32 64.09,74.39 96.15,111.56 1.26,1.46 2.55,2.92 3.84,4.39 2.25,2.6 2.63,5.4 0.92,8.43 -0.68,1.22 -1.33,2.43 -2.02,3.65 -16.15,28.28 -32.31,56.57 -48.42,84.87 -4.55,7.94 -9.03,15.91 -13.47,23.93 -0.1,0.21 -0.2,0.41 -0.31,0.61l189.29 0c0.13,-0.43 0.27,-0.95 0.39,-1.54 0.22,-0.94 0.37,-1.89 0.54,-2.85 1.86,-10.52 3.54,-21.05 5.57,-31.51 5.64,-28.96 11.6,-57.85 17.08,-86.85 4.52,-24.11 8.49,-48.31 12.83,-72.42 1.21,-6.69 -0.13,-12.67 -4.07,-18.09 -2.6,-3.61 -5.28,-7.13 -7.86,-10.75 -28.81,-40.31 -59.42,-79.18 -92.66,-115.96 -14.19,-15.72 -29.9,-29.7 -46.06,-43.23 -3.54,-2.93 -7.54,-4.01 -12.03,-2.54 -8.52,2.81 -14.73,8.22 -17.97,16.63 -4.35,11.35 -3.71,22.63 1.59,33.49 2.65,5.46 5.95,10.63 9.06,15.87 7.93,13.33 16,26.63 22.24,40.86 2.5,5.69 4.26,11.71 6.05,17.67 0.95,3.15 0.99,6.46 -0.76,9.48 -4.23,-0.65 -7.32,-2.41 -10.22,-5.01 -18.48,-16.59 -36.87,-33.26 -55.7,-49.44 -14.61,-12.57 -29.81,-24.44 -44.69,-36.69 -3.09,-2.56 -6.09,-5.28 -8.87,-8.16 -3.9,-4.04 -6.97,-8.67 -7.85,-14.39 -1.78,-11.51 -3.51,-23.01 -5.19,-34.53 -2.16,-14.8 -3.95,-29.67 -6.41,-44.43 -2.86,-17.08 -6.02,-34.11 -9.52,-51.04 -2.8,-13.42 -4.92,-27.02 -9.4,-40.03 -0.25,-0.72 -0.18,-1.55 -0.25,-2.31 2.48,-0.93 3.85,0.57 5.38,1.72 4.8,3.56 8.91,3.58 13.69,0.02 1.11,-0.82 2.09,-1.83 3.17,-2.67 4.04,-3.21 7.89,-3.47 12.29,-0.8 4.65,2.84 8.85,6.11 11.97,10.74 3.52,5.21 8.52,7.95 14.96,7 5.68,-0.83 9.92,1.3 13.58,5.43 4.93,5.57 11,9.77 17.35,13.47 4.21,2.46 8.13,5.11 11.56,8.67 5.35,5.61 12.03,7.6 19.71,5.97 5.03,-1.08 10.1,-1.63 15.28,-0.7 6.69,1.2 12.65,4 17.92,8.24 4.41,3.58 9.38,5.25 15.05,4.83 2.76,-0.21 5.53,-0.42 8.28,-0.72 7.19,-0.81 12.83,1.39 16.22,8.14 3.07,6.17 8.05,8.66 14.89,8.42 5.24,-0.18 10.51,0.3 15.76,0.58 3.34,0.18 6,1.74 8.2,4.31 3.17,3.7 7.25,6.19 12,6.98 4.07,0.68 8.24,0.58 12.39,0.66 5.05,0.11 8.63,-2.15 10.87,-6.83 2.6,-5.39 7.15,-7.68 13.03,-6.54 6.56,1.24 12.71,-0.02 18.67,-2.46 4.1,-1.66 8.04,-3.75 11.9,-5.88 3.53,-1.94 6.93,-2.41 10.71,-0.74 3.97,1.77 8.09,2.3 12.55,1.7 8.81,-1.12 15.77,1.98 19.96,10.24 1.06,2.1 2.24,4.14 3.32,6.22 1.48,2.83 2.85,5.7 4.37,8.5 1.92,3.51 4.71,5.78 8.91,5.88 2.2,0.04 4.43,0.05 6.63,0 6.83,-0.19 12.56,1.38 17.06,7.36 7.55,9.97 22.28,13.02 33.42,6.87 5.7,-3.17 10.6,-2.98 15.92,0.29 4.6,2.83 9.28,5.52 14.04,8.09 6.56,3.57 13.08,4 19.62,-0.31 4.03,-2.66 8.62,-3.89 13.45,-3.48 4.4,0.36 8.79,1.02 13.17,1.69 7.93,1.2 15.87,2.16 23.59,4.61 3.62,1.14 7.62,1.57 11.44,1.57 6.43,-0.03 11.62,-3.06 16.06,-7.67 2.93,-3.06 6.26,-5.73 9.81,-8.92 1.34,2.05 2.21,3.61 3.3,4.98 2.3,2.93 4.58,5.88 7.13,8.6 3.1,3.34 6.93,3.83 11.03,1.92 3.37,-1.59 6.68,-3.35 10.09,-4.87 1.74,-0.76 3.65,-1.65 5.48,-1.6 5.66,0.18 10.65,-1.61 15.15,-4.81 4.43,-3.1 8.7,-3.13 13.05,0.06 3.71,2.72 7.91,3.89 12.51,3.7 0.42,-0.02 0.83,-0.06 1.25,-0.06 4.59,0.02 5.93,1.49 5.39,6.14 -0.28,2.35 -0.78,4.65 -1.11,6.98 -1.56,10.98 -3.4,21.93 -4.53,32.95 -1.04,10.27 -4.56,18.98 -12.59,25.76 -12.41,10.44 -24.69,21.04 -37.08,31.51 -19.17,16.2 -38.41,32.32 -57.55,48.54 -4.85,4.13 -9.42,8.63 -14.15,12.89 -2.1,1.91 -4.46,3.22 -7.98,2.56 -0.26,-2.25 -0.98,-4.61 -0.69,-6.82 0.66,-5.09 2.15,-9.97 4.63,-14.57 9.98,-18.39 19.87,-36.83 29.68,-55.33 2.14,-4.02 4.19,-8.17 5.64,-12.47 4.08,-12.09 3.2,-23.84 -4.03,-34.61 -6.81,-10.16 -18.49,-12.37 -28.79,-5.73 -1.97,1.27 -3.81,2.79 -5.63,4.28 -11.83,9.69 -22.56,20.49 -32.93,31.71 -28.99,31.44 -55.72,64.74 -81.49,98.83 -6.93,9.18 -13.87,18.35 -20.57,27.73 -6.92,9.7 -9.43,20.46 -7.1,32.33 5.07,25.82 10.11,51.65 14.98,77.52 6.59,34.99 12.99,70.01 19.48,105.02 0.31,1.67 0.61,3.04 0.96,4.15l189.56 0c-0.5,-0.99 -0.99,-1.92 -1.5,-2.85 -20.19,-35.54 -40.41,-71.09 -60.6,-106.65 -0.68,-1.19 -1.33,-2.42 -1.93,-3.67 -1.35,-2.9 -1.09,-5.69 0.87,-8.23 1.63,-2.06 3.4,-4.02 5.09,-6.01 29.05,-34.11 58.26,-68.07 87.02,-102.41 14.69,-17.53 28.81,-35.56 42.67,-53.75 9.87,-12.98 17.65,-27.29 21.4,-43.33 2.17,-9.29 3.35,-18.8 4.81,-28.26 2.71,-17.53 5.3,-35.06 7.96,-52.61 4.63,-30.67 9.23,-61.36 13.93,-92.04 2.17,-14.19 3.12,-28.31 0.54,-42.61zm-496.29 74.95c-4.24,-0.44 -8.5,-0.97 -12.74,-1.53 -2.94,-0.36 -4.62,-2.15 -5.48,-4.93 -3.15,-10.03 -1.89,-19.38 3.98,-28.09 1.45,-2.21 3.5,-3.39 6.04,-4.11 2.16,1.83 2.93,4.12 3,6.67 0.06,4.15 0.03,8.31 0.03,12.45 0,1.24 -0.11,2.48 -0.09,3.74 0.11,6.59 1.76,9.09 8.42,12.74 0.04,2.42 -1.2,3.28 -3.16,3.07zm4.44 -20.02c-1.24,-4.2 -1.92,-8.65 -2.37,-13.01 -0.31,-3.13 1.33,-5.61 4.34,-6.9 1,-0.43 2.1,-0.69 3.14,-1.07 3.32,-1.23 4.31,-3.73 2.62,-6.86 -0.5,-0.96 -1.25,-1.84 -2.03,-2.6 -2.43,-2.45 -3.23,-5.45 -2.81,-8.78 0.33,-2.6 0.59,-5.26 1.33,-7.74 0.38,-1.3 1.54,-2.79 2.72,-3.31 2.89,-1.26 5.92,-2.46 9,-2.9 6.55,-0.92 10.67,-4.75 13.81,-10.11 0.79,-1.3 1.36,-2.74 2.22,-3.97 1.74,-2.42 3.22,-2.63 5.6,-0.97 0.68,0.47 1.3,1.03 1.87,1.61 0.68,0.69 1.28,1.44 2.29,2.66 -1.22,1.37 -2.18,2.5 -3.24,3.57 -8.84,8.68 -15.81,18.84 -22.8,29 -0.45,0.68 -0.92,1.41 -1.19,2.17 -0.89,2.36 -0.13,3.76 2.37,4.14 2.46,0.34 4.96,0.46 7.42,0.72 0.93,0.09 1.85,0.29 2.85,0.47 0.05,2.43 -0.95,4.23 -2.29,5.83 -5.5,6.57 -10.95,13.2 -16.6,19.66 -3.73,4.27 -6.67,3.76 -8.26,-1.61zm47.42 18.37c-4.39,3.1 -8.63,6.39 -12.96,9.57 -4.33,3.23 -8.98,5.52 -14.59,3.97 -1.42,-0.39 -2.91,-1.04 -4.06,-1.96 -4,-3.19 -7.86,-6.55 -11.71,-9.91 -0.54,-0.46 -0.75,-1.35 -1.32,-2.45 1.06,-0.41 1.55,-0.77 2.05,-0.8 5.13,-0.07 8.39,-3.06 11.07,-6.99 4.44,-6.51 8.89,-13.03 13.31,-19.55 0.62,-0.93 1.18,-1.89 1.85,-2.75 4.34,-5.41 10.71,-4.84 13.58,1.42 1.26,2.72 1.85,5.78 2.56,8.7 1.1,4.57 2.05,9.19 3.06,13.76 0.8,3.75 0.26,4.75 -2.83,6.96zm43.19 -71.94c-5.1,10.16 -7.94,20.95 -8.81,32.26 -0.26,3.4 -1.26,6.48 -3.2,9.3 -1.15,1.72 -2.33,3.44 -3.21,5.33 -1.68,3.63 -1.52,7.26 0.54,10.74 0.57,0.95 1.25,1.83 1.81,2.79 1.97,3.35 1.45,5.38 -2.12,6.98 -2.49,1.15 -5.14,2.1 -7.79,2.83 -4.31,1.18 -6.22,0.22 -7.63,-4.07 -1.29,-3.94 -2.24,-7.98 -3.2,-12.02 -0.83,-3.51 -1.54,-7.04 -2.17,-10.58 -0.93,-5.37 0.6,-7.38 6.01,-8.28 1.89,-0.31 3.87,-0.45 5.67,-1.07 5,-1.78 6.74,-5.48 5.14,-10.56 -1.57,-5.08 -4.85,-8.97 -8.84,-12.33 -1.15,-0.99 -2.48,-1.79 -3.65,-2.74 -3,-2.4 -4.04,-6.41 -2.27,-9.69 0.51,-0.93 1.78,-1.81 2.84,-2.03 2.57,-0.49 5.2,-0.73 7.82,-0.77 7.61,-0.13 15.24,-0.13 22.88,-0.15 0.38,0 0.78,0.15 1.78,0.34 -0.63,1.49 -1.06,2.64 -1.6,3.72zm5.93 -15.31c-7.3,0.63 -14.66,0.99 -21.98,0.72 -6.3,-0.2 -10.76,-3.91 -13.51,-9.6 -1.12,-2.31 -0.92,-4.6 -0.19,-6.89 1.11,-3.41 2.4,-6.79 3.48,-10.22 0.94,-2.9 1.83,-5.81 2.52,-8.78 0.37,-1.6 0.49,-3.31 0.37,-4.94 -0.31,-5.09 -2.41,-9.15 -7.41,-11.04 -4.98,-1.87 -9.61,-0.81 -13.65,2.46 -2.48,2.03 -3.63,4.95 -3.28,8.17 0.37,3.28 0.61,6.74 1.82,9.76 5.34,13.48 -6.79,26.35 -17.48,27.87 -3.28,0.48 -6.59,0.63 -9.91,0.89 -2.33,0.19 -4.36,-0.44 -6.22,-2.65 0.43,-0.93 0.95,-2 1.46,-3.08 3.28,-7.19 6.63,-14.32 9.76,-21.57 0.83,-1.85 1.26,-4.01 1.33,-6.04 0.19,-5.12 -3.31,-9.4 -8.3,-10.57 -4.35,-1.02 -9.29,1.3 -11.24,5.85 -1.13,2.62 -1.7,5.59 -1.93,8.45 -0.27,3.14 0.04,6.35 0.25,9.52 0.31,4.79 -1.03,6.58 -5.75,7.46 -1.64,0.28 -3.28,0.54 -4.92,0.88 -5.27,1.15 -6.71,2.71 -7.19,8.1 -0.41,4.57 -0.54,9.15 -0.95,13.69 -0.5,5.83 -1.72,11.56 -4.27,16.83 -2.09,4.32 -3.33,8.82 -3.85,13.52 -0.56,4.91 -1.94,9.5 -4.2,13.85 -2.82,5.39 -5.87,10.68 -8.73,16.09 -1.11,2.07 -2.72,2.89 -5.03,2.94 -4.82,0.13 -9.67,0.52 -14.5,0.65 -5.32,0.15 -10.07,-1.6 -14.19,-4.96 -5.04,-4.11 -10.72,-7.07 -17.21,-7.7 -4.91,-0.49 -9.92,-0.16 -14.88,-0.06 -2.21,0.06 -4.39,0.68 -6.59,0.72 -4.69,0.07 -8.86,-1.44 -11.64,-5.31 -4.32,-6.01 -10.01,-9.66 -17.06,-11.83 -2.72,-0.86 -5.04,-3.27 -7.32,-5.22 -1.46,-1.25 -2.46,-2.98 -3.73,-4.46 -4.22,-4.93 -9.44,-7.85 -16.07,-6.88 -5.15,0.73 -8.6,-1.44 -12.04,-4.98 -4.03,-4.16 -8.32,-8.19 -13.07,-11.47 -7.69,-5.34 -14.44,-4.61 -21.65,1.39 -4.08,3.4 -5.19,3.47 -9.47,0.54 -5.95,-4.08 -11.91,-8.13 -17.85,-12.24 -1.69,-1.18 -3.41,-2.39 -4.93,-3.81 -3.4,-3.15 -3.43,-5.81 -0.38,-9.35 2.6,-3.03 5.24,-6.05 7.78,-9.16 2,-2.46 3.8,-5.1 5.81,-7.56 6.11,-7.55 7.05,-15.26 1.59,-23.37 -3.22,-4.77 -3.83,-9.2 -2.1,-14.42 1.99,-6.04 3.6,-12.19 5.77,-18.17 1.48,-4.03 3.96,-7.65 7.25,-10.53 7.46,-6.45 14.81,-12.98 20,-22.15 -0.24,-0.41 -0.76,-1.34 -1.37,-2.22 -3.17,-4.56 -6.34,-9.1 -9.52,-13.65 -0.25,-0.33 -0.42,-0.89 -0.73,-0.99 -3.76,-1.11 -4.67,-5.24 -7.63,-7.17 -0.45,-0.29 -0.95,-0.69 -1.18,-1.15 -2.36,-5.01 -7.13,-8 -10.29,-12.36 -1.48,-2.04 -3.59,-2.94 -5.95,-3.44 -1.04,-0.23 -2.1,-0.35 -3.16,-0.54 0.3,-1.89 1.59,-1.79 2.6,-1.62 7.12,1.1 14.37,1.83 19.41,8.04 1.56,1.94 3.52,3.57 4.97,5.58 2.89,3.96 6.63,6.67 11.09,8.46 3.48,1.41 5.72,3.76 7.74,7.04 3.18,5.15 7.02,9.98 11.07,14.49 4.65,5.18 11.02,5.39 17.37,4.44 2.93,-0.43 4.72,-2.94 4.82,-5.98 0.04,-1.25 -0.05,-2.54 -0.36,-3.72 -1.42,-5.35 0.19,-10.13 2.75,-14.73 1.76,-3.13 3.59,-6.22 5.35,-9.36 3.77,-6.81 8.32,-8.58 15.61,-5.91 3.39,1.26 6.67,2.72 10.03,4 4.19,1.56 8.35,1.58 12.59,0 5.57,-2.08 11.21,-4 16.83,-5.97 1.29,-0.45 2.61,-0.83 4.39,-1.42 1.91,4.54 3.6,8.6 5.37,12.64 0.99,2.29 2.02,4.58 3.26,6.72 3.13,5.38 7.66,9.04 13.68,10.83 2.37,0.72 4.77,1.48 7.06,2.43 6.04,2.52 11.02,6.41 14.48,12 5.64,9.04 14.07,12.96 24.33,13.68 2.06,0.16 4.16,0.19 6.22,0.16 8.3,-0.12 15.1,2.94 20.36,9.4 5.51,6.78 11.08,13.52 16.67,20.24 1.14,1.38 2.32,2.8 3.69,3.91 5.02,4.17 10.13,3.39 13.75,-2.06 1,-1.49 1.73,-3.16 2.58,-4.75 4.79,-8.85 12.85,-13.05 22.77,-11.89 5.3,0.62 8.06,2.79 9.3,8.05 1.3,5.52 2.19,11.14 3.25,16.71 0.15,0.81 0.27,1.65 0.48,2.44 2.39,9.43 6.98,13.17 16.74,13.5 4.48,0.16 8.07,1.8 10.53,5.61 1.06,1.62 2.02,3.34 3.16,4.89 0.96,1.31 2.15,2.48 3.43,3.9 -0.34,0.33 -0.87,0.98 -1.53,1.39 -3.99,2.49 -4.91,6.04 -3.9,10.44 0.57,2.42 1.02,4.9 1.12,7.38 0.25,5.69 -2.11,8.79 -7.74,9.26zm59.48 57.21c-4.08,3.21 -5.49,7.45 -4.72,12.53 0.33,2.33 0.49,4.71 0.57,7.05 0.29,7.2 -3.72,13.48 -10.4,16.44 -4.04,1.78 -6.45,1.24 -8.93,-2.4 -3.79,-5.52 -8.76,-9.23 -15.37,-10.44 -2.04,-0.36 -4.14,-0.45 -6.2,-0.5 -4.17,-0.12 -4.17,-0.07 -8.09,-3.84 3,-7.94 5.59,-16 9.03,-23.68 3.35,-7.46 3.73,-14.63 0.48,-22.07 -1.52,-3.56 -1.44,-7 0.85,-10.24 1.5,-2.13 3.02,-2.78 5.35,-1.74 1.85,0.83 3.7,1.98 5.13,3.43 2.5,2.55 4.74,5.39 7.02,8.18 5.04,6.2 11.26,10.17 19.44,10.59 0.94,0.05 2.02,0.19 2.8,0.66 3.29,1.96 6.52,4.06 9.81,6.14 -1.8,4.06 -3.63,7.41 -6.79,9.91zm64.87 31.12c-0.76,1.17 -1.8,2.25 -2.16,3.53 -2.19,7.84 -7.54,13.79 -11.81,20.39 -1.8,2.77 -3.47,5.64 -4.93,8.61 -3.24,6.61 -9.8,8.58 -15.91,4.54 -2.99,-1.98 -6,-3.97 -8.92,-6.07 -1.46,-1.04 -2.86,-2.22 -4.06,-3.54 -3.09,-3.39 -2.69,-6.07 1.3,-8.41 1.13,-0.68 2.55,-1.01 3.89,-1.22 4.04,-0.64 5.33,-1.97 6.26,-5.99 1.55,-6.59 3.27,-13.15 4.93,-19.71 0.31,-1.19 0.61,-2.49 1.26,-3.48 1.7,-2.57 0.8,-4.47 -0.85,-6.68 -2.23,-2.97 -4.17,-6.17 -6.08,-9.37 -0.59,-1 -0.67,-2.34 -0.99,-3.6 3.67,-2.86 7.02,-3.31 10.88,-1.56 6.15,2.79 12.57,5.07 18.65,8.05 2.87,1.42 5.62,3.64 7.72,6.08 4.77,5.57 4.84,12.31 0.81,18.43zm198.64 35.86c-0.36,1.3 -1.07,2.59 -1.94,3.61 -1.75,2.06 -3.98,2.36 -6.33,0.96 -1.05,-0.62 -1.99,-1.47 -2.94,-2.27 -5.72,-4.77 -11.97,-5.41 -18.58,-2.12 -2.22,1.11 -4.28,2.52 -6.44,3.8 -1.69,1 -3.38,1.94 -5.46,1.37 -5.32,-1.46 -9.78,0.43 -13.86,3.71 -1.18,0.94 -2.26,2.05 -3.47,2.97 -3.16,2.37 -5.83,2.06 -8.24,-1.1 -1.17,-1.52 -1.94,-3.35 -3.04,-4.93 -1.72,-2.52 -3.34,-5.13 -5.38,-7.39 -2.53,-2.8 -5.85,-3.28 -8.98,-1.18 -2.62,1.75 -5.23,3.76 -7.2,6.2 -6.82,8.5 -15.31,10.55 -25.61,7.96 -12.51,-3.1 -25.3,-4.37 -38.16,-5.39 -5.68,-0.45 -10.66,0.57 -15.65,2.78 -1.5,0.66 -3.08,1.14 -5.16,1.91 0.18,-1.37 0.22,-2.24 0.44,-3.07 0.2,-0.8 0.54,-1.57 0.88,-2.33 3.66,-8.02 4.77,-16.34 3.93,-25.13 -0.76,-8 -0.91,-16.05 -1.17,-24.1 -0.08,-2.74 0.37,-5.5 0.5,-8.26 0.09,-1.92 0.49,-3.97 0.04,-5.78 -1.72,-6.82 0.14,-12.89 3.5,-18.69 1.9,-3.21 2.94,-6.53 2.54,-10.3 -0.56,-5.43 -4.72,-10.63 -9.98,-12.14 -5.39,-1.55 -8.03,0.95 -8.66,5.91 -0.23,1.73 0.19,3.56 0.38,5.35 0.45,4.24 1.47,8.43 0.38,12.78 -1.94,7.78 -8.25,11.94 -15.92,9.77 -3.27,-0.92 -6.56,-2.37 -9.35,-4.31 -6.25,-4.34 -12.25,-9.06 -18.22,-13.78 -2.67,-2.12 -2.65,-3.81 -0.28,-6.26 2.02,-2.1 4.39,-3.89 6.19,-6.14 7.25,-9.07 2.89,-21.37 -8.48,-23.99 -5.14,-1.16 -9.59,0.42 -13.22,4.19 -2.43,2.52 -2.8,5.62 -2.07,8.92 0.63,2.84 1.43,5.65 1.93,8.49 0.74,4.04 -0.68,6.39 -4.61,6.87 -6.86,0.87 -13.74,1.41 -20.61,-0.32 -6.93,-1.74 -12.85,-5.11 -17.84,-10.12 -4.89,-4.91 -9.74,-9.85 -14.62,-14.79 -4.61,-4.67 -4.66,-7.57 -0.24,-12.5 0.93,-1.03 1.81,-2.09 2.77,-3.11 2.77,-2.94 3.84,-6.31 2.94,-10.32 -0.3,-1.3 -0.24,-2.69 -0.36,-4.34 9.13,-3.96 18.09,-7.85 27.79,-12.06 0.44,3.89 0.92,6.99 1.07,10.11 0.14,2.9 -0.2,5.81 -0.09,8.73 0.32,9 5.31,14 14.24,14.62 8.25,0.6 15.91,-1.46 23.31,-4.85 2.66,-1.22 5.27,-2.45 7.96,-3.54 3.8,-1.54 7.1,-0.6 9.77,2.42 1.65,1.85 3.14,3.86 4.66,5.84 3.39,4.39 6.57,8.93 10.19,13.13 1.94,2.28 4.34,4.34 6.91,5.88 5.54,3.36 10.73,2.2 14.59,-3 2.13,-2.86 3.95,-5.97 6.22,-9.44 1.45,1.26 2.7,2.24 3.87,3.31 5.62,5.22 9.98,5.43 15.66,0.31 3.08,-2.77 5.87,-5.89 8.69,-8.95 3.63,-3.96 5.17,-4.36 10.21,-2.43 1.68,0.65 3.35,1.38 5.11,1.76 8.66,1.76 16.49,5.51 24.16,9.74 6.28,3.49 12.92,5.64 20.2,5.4 4.94,-0.18 9.5,-1.69 14,-3.56 1.62,-0.68 3.44,-1.41 5.12,-1.36 7.29,0.3 13.94,-1.75 20.43,-4.72 2.13,-0.96 4.33,-1.91 6.37,-3.03 5.53,-3.04 11.64,-3.47 17.72,-3.78 3.22,-0.18 5.61,2.72 5.4,6.46 -0.17,2.9 -0.67,5.78 -1.24,8.63 -0.7,3.54 -1.65,7.01 -2.44,10.53 -0.19,0.8 -0.41,1.63 -0.37,2.43 0.42,9.13 0.8,18.27 1.32,27.4 0.62,10.65 4.32,19.95 12.33,27.31 3.97,3.66 5.84,8.36 6.04,13.7 0.41,10.04 -0.69,19.92 -3.51,29.58z"/>
     <path class="fil1" d="M423.58 937.19l-15.7 0 0 99.62 -21.79 -21.57 0 -36.34 -29.98 0 0 23.89c0,2.34 -0.79,3.52 -2.33,3.52 -2.51,0 -6.33,-2.93 -11.48,-8.79 -5.15,-5.86 -8.44,-10.97 -9.84,-15.35 -0.31,-1.4 -0.7,-3.19 -1.17,-5.38 -0.46,-2.19 -0.7,-3.91 -0.7,-5.17 0,-2.49 0.62,-5.1 1.87,-7.85 1.25,-2.72 3.2,-4.52 5.85,-5.38 2.66,-0.86 5.78,-1.29 9.37,-1.29l38.42 0 0 -19.91 -57.87 0 0 -17.57 95.35 0 0 17.57z"/>
     <path class="fil1" d="M399.69 918.91l-8.9 0c-2.19,-3.74 -4.84,-6.87 -7.97,-9.37 -2.02,-1.72 -4.1,-3.23 -6.21,-4.57 -2.11,-1.33 -4.33,-2.26 -6.68,-2.8 -2.34,-0.55 -3.75,-0.91 -4.21,-1.06 -0.94,-0.15 -2.27,-0.22 -3.98,-0.22 -1.87,0 -3.98,0.22 -6.32,0.69l-13.82 -19.2c3.12,-0.48 5.93,-0.7 8.43,-0.7 7.81,0 15.78,2.42 23.89,7.26 2.82,1.72 5.54,3.9 8.2,6.56 1.56,1.72 3.9,4.45 7.03,8.2 2.33,2.81 4.29,5.35 5.85,7.62 1.56,2.27 3.12,4.8 4.69,7.61z"/>
     <path class="fil1" d="M515.65 937.19l-18.98 0 0 99.62 -19.44 -19.94 0 -24.39c-5.06,2.49 -10.1,3.74 -15.15,3.74 -5.69,0 -11.3,-1.79 -16.82,-5.37 -4.57,-2.96 -8.07,-6.3 -10.53,-10.03 -2.44,-3.73 -3.66,-8.24 -3.66,-13.54l0 -30.1 -7.5 0 0 -17.57 92.07 0 0 17.57zm-38.42 30.54l0 -30.54 -28.35 0 0 38c0,3.11 1.05,5.72 3.16,7.81 2.11,2.11 4.57,3.15 7.38,3.15 2.96,0 5.62,-1.2 7.97,-3.61 2.34,-2.4 4.76,-4.77 7.25,-7.11 1.72,-2.48 2.59,-5.05 2.59,-7.7z"/>
     <path class="fil1" d="M556.88 937.18l-60.2 0 0 -17.57 60.2 0 0 17.57zm-13.36 56.74c0,6.56 -0.55,11.96 -1.63,16.17 -1.1,4.22 -3.36,9.15 -6.8,14.78l-17.33 -17.13 7.02 -12.89c1.41,-2.35 2.46,-4.65 3.16,-6.92 0.7,-2.27 1.06,-4.58 1.06,-6.92 0,-4.53 -1.73,-7.67 -5.15,-9.39 -1.26,-0.62 -2.74,-0.94 -4.46,-0.94 -1.41,0 -3.2,0.39 -5.39,1.18 -1.09,0.31 -2.96,1.09 -5.62,2.34 -4.53,1.87 -8.43,5 -11.71,9.37l0 -26.72c4.84,-3.42 9.92,-5.15 15.23,-5.15 3.28,0 6.24,0.51 8.9,1.52 2.66,1.03 5,2.39 7.02,4.11 2.03,1.72 4.69,5.01 7.97,9.85 2.81,4.22 4.81,8.36 5.98,12.43 1.17,4.05 1.75,8.82 1.75,14.3z"/>
     <path class="fil1" d="M578.67 1075.64l-9.83 0c-2.66,-3.44 -5.48,-6.05 -8.44,-7.83 -2.97,-1.79 -5.54,-3.21 -7.73,-4.26 -2.19,-1.05 -4.77,-1.83 -7.74,-2.35 -2.96,-0.52 -6.08,-0.79 -9.36,-0.79l-3.28 0 -2.81 0 -15.46 -17.33c3.28,-0.48 6.41,-0.7 9.36,-0.7 4.69,0 9.03,0.5 13,1.5 3.98,1.02 8.55,2.76 13.72,5.24 2.96,1.39 5.93,3.34 8.9,5.82 0.46,0.46 3,2.83 7.61,7.09 4.61,4.26 8.63,8.8 12.07,13.61z"/>
     <path class="fil1" d="M629.28 979.35c-3.28,2.03 -6.37,3.64 -9.26,4.81 -2.89,1.17 -5.55,1.91 -7.97,2.22 -2.42,0.32 -4.38,0.51 -5.86,0.59 -1.49,0.08 -2.54,0.12 -3.16,0.12 -2.97,0 -6.49,-0.46 -10.54,-1.41 -0.62,2.82 -1.1,4.62 -1.41,5.39 -0.79,1.09 -1.41,2.11 -1.87,3.05 -1.87,3.28 -4.22,6.01 -7.03,8.2l27.65 27.65 -6.54 6.37 -26.47 -26.78c-5.56,-5.78 -9.8,-11.56 -12.72,-17.33 -2.94,-5.79 -4.4,-12.09 -4.4,-18.96l0 -3.74c0,-3.91 0.74,-6.72 2.23,-8.43 1.48,-1.72 3.78,-3.04 6.91,-3.98 1.09,-0.31 2.73,-0.07 4.93,0.7 2.18,0.79 3.98,0.94 5.38,0.46 2.03,-0.62 3.44,-1.79 4.22,-3.51 0.77,-1.72 1.17,-3.91 1.17,-6.56 0,-4.38 -1.25,-8.05 -3.74,-11.02l-24.37 0 0 -17.57 72.86 0 0 17.57 -31.15 0c0.46,2.19 0.85,4.22 1.17,6.09 0.31,1.87 0.46,4.3 0.46,7.26 0,2.2 -0.39,4.38 -1.17,6.56 -0.79,2.2 -1.18,3.67 -1.18,4.45 0,0.78 0.36,1.92 1.06,3.4 0.7,1.49 2.11,2.69 4.22,3.62 2.1,0.94 4.4,1.41 6.91,1.41 0.93,0 2.18,-0.15 3.74,-0.46 5.31,-1.09 8.79,-2.06 10.43,-2.94 1.65,-0.84 3.48,-2.68 5.51,-5.5l0 18.27z"/>
     <path class="fil1" d="M758.82 937.19l-55.76 0 0 21.31c4.53,-3.11 9.13,-4.68 13.82,-4.68 1.09,0 2.43,0.16 3.99,0.47 1.56,0.31 3.31,0.78 5.27,1.41 1.94,0.62 3.93,1.75 5.97,3.4 2.03,1.64 4.45,4.64 7.26,9.02 4.83,7.49 7.26,15.63 7.26,24.37 0,5.77 -0.56,10.81 -1.65,15.11 -1.1,4.29 -3.13,8.78 -6.09,13.46l-16.4 -15.46 6.8 -12.19c2.49,-4.37 3.75,-8.74 3.75,-13.12 0,-3.9 -1.48,-6.63 -4.45,-8.19 -1.26,-0.62 -2.66,-0.94 -4.22,-0.94 -1.39,0 -2.65,0.16 -3.74,0.46 -2.97,1.41 -5.15,2.35 -6.56,2.81 -4.54,2.03 -8.2,4.91 -11.01,8.66l0 55.25 -21.79 -21.77 0 -21.05c-2.49,2.35 -5.7,4.1 -9.6,5.27 -3.92,1.17 -7.59,1.75 -11.01,1.75 -2.19,0 -3.98,-0.22 -5.39,-0.7 -3.91,-1.24 -8.05,-4.83 -12.42,-10.77 -5.01,-6.72 -7.5,-13.04 -7.5,-18.97 0,-5.31 1.72,-9.88 5.15,-13.71 3.44,-3.83 7.97,-6.52 13.6,-8.09 1.55,-0.31 2.8,-0.46 3.74,-0.46 4.21,0 9.38,1.48 15.46,4.45 2.03,0.94 4.69,2.5 7.96,4.69l0 -21.79 -52.01 0 0 -17.57 129.56 0 0 17.57zm-79.66 37.24l0 -3.98c-0.78,-0.62 -2.3,-1.17 -4.57,-1.64 -2.27,-0.48 -4.41,-0.7 -6.44,-0.7 -5.31,0 -9.37,0.79 -12.18,2.34 -2.04,1.09 -3.8,2.54 -5.27,4.34 -1.49,1.79 -2.23,3.63 -2.23,5.5 0,1.41 0.43,2.78 1.29,4.11 0.86,1.32 2.54,1.99 5.05,1.99 1.7,0 3.31,-0.28 4.79,-0.83 1.49,-0.54 3.83,-1.52 7.03,-2.92 3.21,-1.41 5.12,-2.26 5.75,-2.57 2.34,-1.41 4.6,-3.28 6.79,-5.63z"/>
     <path class="fil1" d="M773.58 1075.64l-7.26 1.63c-1.41,-2.84 -2.43,-4.65 -3.04,-5.44 -1.72,-2.21 -3.06,-3.87 -3.98,-4.96 -2.03,-2.52 -3.36,-4.1 -3.98,-4.73 -1.25,-1.26 -2.89,-2.53 -4.93,-3.78 -2.03,-1.26 -3.87,-2.29 -5.5,-3.08 -1.65,-0.79 -3.43,-1.3 -5.39,-1.54 -1.96,-0.24 -3.87,-0.44 -5.74,-0.59 -1.41,0 -2.78,0.31 -4.1,0.94 -1.32,0.62 -2.46,1.32 -3.4,2.11 -0.93,0.78 -1.41,1.79 -1.41,3.04 0,0.78 0.44,1.52 1.29,2.23 0.86,0.69 1.77,1.2 2.7,1.52 0.63,0.15 1.49,0.24 2.58,0.24 1.25,0 2.35,-0.24 3.28,-0.7l3.98 14.53c-0.78,0.15 -1.94,0.22 -3.5,0.22 -3.91,0 -7.42,-1.24 -10.55,-3.74 -4.22,-3.28 -6.33,-7.42 -6.33,-12.41 0,-3.44 0.27,-6.2 0.82,-8.31 0.55,-2.11 1.75,-4.03 3.63,-5.74 1.88,-1.73 3.79,-2.78 5.75,-3.18 1.96,-0.38 4.57,-0.58 7.85,-0.58l2.33 0c3.91,0 7.5,1.01 10.78,3.05 0.62,0.31 2.7,1.75 6.2,4.33 3.52,2.58 7.07,6.53 10.67,11.83 1.56,2.33 2.93,4.53 4.1,6.56 1.17,2.03 2.23,4.22 3.16,6.56z"/>
     <path class="fil1" d="M854.17 937.19l-15.7 0 0 99.62 -21.79 -21.57 0 -36.34 -29.98 0 0 23.89c0,2.34 -0.79,3.52 -2.35,3.52 -2.49,0 -6.32,-2.93 -11.47,-8.79 -5.15,-5.86 -8.43,-10.97 -9.84,-15.35 -0.31,-1.4 -0.7,-3.19 -1.17,-5.38 -0.47,-2.19 -0.7,-3.91 -0.7,-5.17 0,-2.49 0.62,-5.1 1.87,-7.85 1.25,-2.72 3.19,-4.52 5.85,-5.38 2.66,-0.86 5.77,-1.29 9.37,-1.29l38.42 0 0 -19.91 -57.87 0 0 -17.57 95.35 0 0 17.57z"/>
    </g>
   </g>
  </g>
  <path class="fil2" d="M200 75.44l800 0c55,0 100,45 100,100l0 849.12c0,55 -45,100 -100,100l-800 0c-55,0 -100,-45 -100,-100l0 -849.12c0,-55 45,-100 100,-100z"/>
 </g>
</svg>
